<svg height="480pt" viewBox="0 -88 480 480" width="480pt" xmlns="http://www.w3.org/2000/svg"><path d="m104 32c-22.335938.15625-43.949219 7.9375-61.261719 22.054688-3.328125 2.90625-3.667969 7.957031-.761719 11.285156s7.957032 3.667968 11.285157.761718c14.402343-11.554687 32.273437-17.929687 50.738281-18.101562 22.527344 0 40 12.898438 40 24 0 4.417969 3.582031 8 8 8s8-3.582031 8-8c0-21.679688-25.644531-40-56-40zm0 0"/><path d="m104 0c-48.09375 0-104 31.453125-104 72s55.90625 72 104 72c37.214844 0 70.246094-19.257812 82.695312-47.5l293.304688 7.710938v-64.421876l-293.304688 7.710938c-12.449218-28.242188-45.480468-47.5-82.695312-47.5zm360 87.789062-288.46875-7.59375-1.863281 5.648438c-8.1875 24.820312-36.835938 42.15625-69.667969 42.15625-39.613281 0-88-25.84375-88-56s48.386719-56 88-56c32.832031 0 61.480469 17.335938 69.667969 42.15625l1.863281 5.648438 288.46875-7.59375zm0 0"/><path d="m48 176h16v16h-16zm0 0"/><path d="m64 192h16v16h-16zm0 0"/><path d="m64 224h16v16h-16zm0 0"/><path d="m96 208h16v16h-16zm0 0"/><path d="m48 256h16v16h-16zm0 0"/><path d="m64 288h16v16h-16zm0 0"/><path d="m112 272h16v16h-16zm0 0"/><path d="m112 160h16v16h-16zm0 0"/></svg>